<?xml version="1.0" encoding="utf-8"?>
<!-- Generator: Adobe Illustrator 16.0.0, SVG Export Plug-In . SVG Version: 6.00 Build 0)  -->
<!DOCTYPE svg PUBLIC "-//W3C//DTD SVG 1.1//EN" "http://www.w3.org/Graphics/SVG/1.1/DTD/svg11.dtd">
<svg version="1.1" id="Layer_1" xmlns="http://www.w3.org/2000/svg" xmlns:xlink="http://www.w3.org/1999/xlink" x="0px" y="0px"
	 width="841.89px" height="595.28px" viewBox="0 0 841.89 595.28" enable-background="new 0 0 841.89 595.28" xml:space="preserve">
<g>
	<g>
		<linearGradient id="SVGID_1_" gradientUnits="userSpaceOnUse" x1="357.7441" y1="283.9082" x2="360.7451" y2="294.0366">
			<stop  offset="0" style="stop-color:#00C3FF"/>
			<stop  offset="1" style="stop-color:#00FFFF"/>
		</linearGradient>
		<path fill="url(#SVGID_1_)" d="M356.131,293.658c0,1.489,1.207,2.692,2.694,2.692c1.487,0,2.692-1.203,2.692-2.692v-12.606
			l-5.386,5.834V293.658z"/>
		<linearGradient id="SVGID_2_" gradientUnits="userSpaceOnUse" x1="350.4209" y1="308.8516" x2="359.425" y2="279.438">
			<stop  offset="0" style="stop-color:#00C3FF"/>
			<stop  offset="1" style="stop-color:#00FFFF"/>
		</linearGradient>
		<path fill="url(#SVGID_2_)" d="M367.575,304.689v-2.693c0-1.484-1.205-2.691-2.694-2.691h-19.525l10.774-12.419l5.386-5.834v-1.38
			c0-1.123-0.697-2.13-1.751-2.521c-1.053-0.395-2.237-0.09-2.974,0.758l-19.371,22.324c-0.692,0.795-0.853,1.922-0.417,2.883
			c0.44,0.959,1.398,1.574,2.452,1.574h16.362h6.372H367.575z"/>
		<linearGradient id="SVGID_3_" gradientUnits="userSpaceOnUse" x1="364.8823" y1="314.2773" x2="364.8823" y2="304.3184">
			<stop  offset="0" style="stop-color:#00C3FF"/>
			<stop  offset="1" style="stop-color:#00FFFF"/>
		</linearGradient>
		<path fill="url(#SVGID_3_)" d="M362.189,316.471c0,1.486,1.207,2.689,2.692,2.689c1.489,0,2.694-1.203,2.694-2.689v-11.781h-5.386
			V316.471z"/>
	</g>
	<path fill="#002539" d="M372.949,297.628c0-1.998,0.35-3.987,1.056-5.971c0.7-1.98,1.723-3.755,3.063-5.315
		c1.347-1.561,3-2.834,4.967-3.816c1.967-0.984,4.2-1.475,6.696-1.475c2.963,0,5.505,0.671,7.612,2.014
		c2.107,1.341,3.657,3.09,4.661,5.244l-2.578,1.594c-0.533-1.095-1.179-2.014-1.942-2.764c-0.767-0.751-1.587-1.357-2.458-1.828
		c-0.879-0.468-1.781-0.803-2.718-1.006c-0.941-0.205-1.855-0.303-2.762-0.303c-1.999,0-3.764,0.403-5.296,1.216
		c-1.527,0.813-2.816,1.872-3.858,3.184c-1.047,1.313-1.837,2.788-2.368,4.428c-0.529,1.638-0.795,3.3-0.795,4.986
		c0,1.844,0.318,3.604,0.958,5.292c0.641,1.686,1.513,3.178,2.624,4.473c1.109,1.297,2.42,2.328,3.932,3.09
		c1.517,0.768,3.165,1.148,4.944,1.148c0.935,0,1.896-0.117,2.883-0.35c0.98-0.234,1.928-0.611,2.853-1.127
		c0.923-0.512,1.772-1.154,2.552-1.918c0.785-0.766,1.44-1.693,1.967-2.785l2.718,1.402c-0.532,1.25-1.278,2.35-2.247,3.301
		c-0.97,0.953-2.049,1.758-3.233,2.416c-1.188,0.652-2.442,1.154-3.769,1.496c-1.333,0.344-2.631,0.514-3.909,0.514
		c-2.281,0-4.374-0.496-6.279-1.496c-1.905-0.998-3.545-2.303-4.916-3.91c-1.377-1.611-2.443-3.436-3.21-5.48
		C373.331,301.838,372.949,299.754,372.949,297.628z"/>
	<path fill="#002539" d="M416.963,292.995c-2.149,0.062-4.021,0.655-5.617,1.779c-1.592,1.123-2.718,2.669-3.373,4.636v15.174
		h-3.181v-24.399h2.995v5.855c0.907-1.876,2.123-3.344,3.65-4.403c1.533-1.062,3.17-1.594,4.924-1.594
		c0.247,0,0.445,0.016,0.603,0.047V292.995z"/>
	<path fill="#002539" d="M481.607,313.318c-0.189,0.092-0.463,0.215-0.821,0.373c-0.363,0.158-0.774,0.313-1.24,0.469
		c-0.472,0.156-0.999,0.299-1.598,0.422c-0.594,0.123-1.212,0.186-1.867,0.186c-0.693,0-1.349-0.092-1.967-0.281
		c-0.627-0.186-1.175-0.477-1.646-0.865c-0.461-0.389-0.841-0.881-1.117-1.475c-0.284-0.594-0.424-1.279-0.424-2.061v-17.47h-3.373
		v-2.527h3.373v-8.242h3.188v8.242h5.617v2.527h-5.617v16.582c0.058,0.904,0.379,1.568,0.956,1.99
		c0.578,0.422,1.242,0.631,1.991,0.631c0.904,0,1.699-0.145,2.388-0.443c0.685-0.299,1.123-0.508,1.309-0.635L481.607,313.318z"/>
	<path fill="none" d="M462.348,301.283v-2.205c0-0.01-0.003-0.02-0.003-0.033v2.236
		C462.345,301.281,462.345,301.281,462.348,301.283z"/>
	<path fill="#002539" d="M465.528,310.365v-11.004c0-3.027-0.87-5.4-2.62-7.12c-1.751-1.713-4.156-2.573-7.212-2.573
		c-2.969,0-6.023,1.062-9.18,3.183l1.122,2.108c1.341-0.937,2.674-1.655,3.983-2.156c1.312-0.497,2.591-0.748,3.839-0.748
		c2.158,0,3.84,0.633,5.057,1.897c1.188,1.229,1.785,2.886,1.818,4.956h0.009v0.136c0,0.014,0.003,0.023,0.003,0.033v2.205
		c-0.003-0.002-0.003-0.002-0.003-0.002v2.014c0,0,0,0,0.003,0v3.979c0,0.285-0.073,0.588-0.213,0.916
		c-0.141,0.328-0.351,0.631-0.631,0.914c-0.718,1.029-1.774,1.857-3.159,2.48c-1.395,0.625-2.917,0.938-4.57,0.938
		c-0.813,0-1.574-0.143-2.292-0.422c-0.723-0.281-1.337-0.662-1.852-1.146c-0.516-0.484-0.92-1.053-1.217-1.711
		c-0.297-0.656-0.445-1.357-0.445-2.105c0-1.529,0.705-2.764,2.107-3.701c1.406-0.936,3.232-1.404,5.479-1.404
		c1.185,0,2.348,0.109,3.485,0.328c0.311,0.061,0.609,0.143,0.916,0.215v-2.004c-0.343-0.078-0.663-0.164-1.028-0.225
		c-1.281-0.217-2.548-0.33-3.797-0.33c-1.497,0-2.874,0.182-4.119,0.541c-1.251,0.355-2.326,0.863-3.233,1.52
		s-1.607,1.438-2.107,2.344c-0.498,0.906-0.747,1.889-0.747,2.949c0,1.063,0.203,2.055,0.607,2.973
		c0.408,0.922,0.978,1.729,1.712,2.416c0.733,0.686,1.595,1.225,2.576,1.613c0.982,0.391,2.051,0.586,3.205,0.586
		c1.967,0,3.806-0.393,5.505-1.172c1.702-0.781,3.113-1.904,4.234-3.371l0.095,1.92c0.033,0.721,0.273,1.281,0.727,1.686
		c0.454,0.406,1.085,0.611,1.897,0.611c0.283,0,0.688-0.049,1.215-0.145v-2.809C465.919,311.678,465.528,311.24,465.528,310.365z"/>
	<polygon fill="none" points="421.387,302.35 424.24,301.91 421.387,302.348 	"/>
	<path fill="#002539" d="M442.459,302.947c0-0.252,0.005-0.494,0.005-0.748c0.003-1.688-0.289-3.28-0.88-4.779
		c-0.588-1.501-1.413-2.829-2.473-3.984c-1.06-1.16-2.331-2.076-3.811-2.752c-1.486-0.674-3.109-1.013-4.891-1.016
		c-1.75-0.002-3.369,0.327-4.874,0.995c-1.501,0.669-2.788,1.574-3.869,2.707c-1.081,1.137-1.925,2.463-2.54,3.975
		c-0.186,0.464-0.334,0.94-0.466,1.42l3.224-0.01c0.132-0.456,0.284-0.904,0.479-1.33c0.481-1.093,1.126-2.024,1.921-2.804
		c0.797-0.783,1.729-1.389,2.792-1.821c1.065-0.439,2.187-0.652,3.374-0.652c1.188,0.004,2.297,0.225,3.348,0.664
		c1.039,0.439,1.959,1.049,2.756,1.836c0.801,0.783,1.451,1.709,1.963,2.786c0.516,1.079,0.816,2.275,0.907,3.585l-14.924-0.031l0,0
		l-0.134-0.002l-2.882-0.006c0-0.002,0-0.002,0-0.002l-3.224-0.006c-0.034,0.398-0.058,0.805-0.058,1.217
		c-0.003,1.752,0.298,3.393,0.904,4.922c0.606,1.533,1.456,2.883,2.545,4.055c1.087,1.176,2.375,2.098,3.854,2.771
		c1.48,0.678,3.114,1.018,4.893,1.021c1.19,0,2.326-0.141,3.416-0.441c1.099-0.291,2.098-0.709,3.004-1.256
		c0.908-0.547,1.703-1.184,2.396-1.918c0.688-0.729,1.219-1.547,1.596-2.453l-2.764-0.752c-0.28,0.654-0.688,1.25-1.221,1.797
		c-0.536,0.549-1.127,1.008-1.781,1.381c-0.66,0.371-1.373,0.668-2.156,0.885c-0.779,0.213-1.564,0.324-2.348,0.32
		c-1.184-0.004-2.297-0.23-3.345-0.688c-1.042-0.451-1.974-1.088-2.778-1.902c-0.813-0.813-1.476-1.775-1.987-2.881
		c-0.508-1.111-0.809-2.324-0.904-3.633l20.888,0.045C442.446,303.369,442.459,303.199,442.459,302.947z"/>
	<path fill="#002539" d="M505.126,303.324c0-0.254,0.003-0.498,0.003-0.75c0.004-1.688-0.289-3.279-0.879-4.779
		c-0.589-1.5-1.413-2.829-2.474-3.985c-1.06-1.159-2.329-2.073-3.811-2.751c-1.483-0.675-3.112-1.013-4.891-1.016
		c-1.753-0.002-3.373,0.327-4.874,0.996c-1.501,0.667-2.788,1.573-3.869,2.706c-1.08,1.137-1.925,2.463-2.539,3.975
		c-0.186,0.464-0.335,0.94-0.466,1.42l3.225-0.012c0.131-0.455,0.283-0.901,0.478-1.329c0.483-1.093,1.126-2.024,1.921-2.804
		c0.798-0.781,1.729-1.388,2.792-1.822c1.065-0.438,2.187-0.651,3.374-0.651c1.188,0.006,2.298,0.227,3.345,0.664
		c1.042,0.439,1.964,1.051,2.759,1.836c0.801,0.782,1.452,1.709,1.963,2.788c0.516,1.077,0.816,2.271,0.908,3.583l-14.925-0.031l0,0
		l-0.133-0.002l-2.882-0.004c-0.005-0.004-0.005-0.004,0-0.004l-3.226-0.006c-0.031,0.398-0.058,0.805-0.058,1.219
		c-0.004,1.75,0.298,3.389,0.903,4.922c0.606,1.529,1.456,2.883,2.545,4.053c1.088,1.174,2.375,2.1,3.855,2.773
		c1.481,0.676,3.113,1.016,4.892,1.018c1.19,0.002,2.326-0.141,3.419-0.439c1.096-0.291,2.095-0.711,3.002-1.256
		c0.907-0.547,1.702-1.182,2.396-1.918c0.688-0.729,1.221-1.547,1.596-2.451l-2.764-0.754c-0.28,0.654-0.691,1.25-1.221,1.797
		c-0.536,0.547-1.125,1.006-1.781,1.381c-0.658,0.371-1.373,0.668-2.156,0.885c-0.779,0.215-1.564,0.324-2.347,0.322
		c-1.185-0.006-2.296-0.234-3.344-0.689c-1.047-0.451-1.976-1.088-2.779-1.902c-0.818-0.814-1.477-1.775-1.988-2.883
		c-0.508-1.109-0.813-2.32-0.903-3.631l20.883,0.045C505.113,303.744,505.126,303.572,505.126,303.324z"/>
</g>
</svg>
